<svg xmlns="http://www.w3.org/2000/svg" fill="#4847e0" viewBox="0 0 223.63 223.63"><title>Task_management</title><g id="Task_management"><path d="M124.2,85.9H73.81a2.5,2.5,0,0,1,0-5H121.2a70.16,70.16,0,0,1-3-7H73.81a2.5,2.5,0,0,1,0-5h42.85A52.17,52.17,0,0,1,115,55.49a53.12,53.12,0,0,1,5.35-23.59H26.92a7.06,7.06,0,0,0-7,7.4V182.9H123a10.32,10.32,0,0,1,6.91,2.41,7.79,7.79,0,0,1,1.1,1l.3.09a10.6,10.6,0,0,1,2.62,6.7v11.06c0,6.48,4,15.73,9,15.73v-.13a15.27,15.27,0,0,1-15-15.6V193.11a4.68,4.68,0,0,0-1.23-2.9,5,5,0,0,1-.57-.32,4.65,4.65,0,0,0-3.13-1H8.4a4.24,4.24,0,0,0-4.52,4.21v10.75a16,16,0,0,0,15.89,16H142.88a15.34,15.34,0,0,0,9.81-3.38,15.84,15.84,0,0,0,6.19-12.35V108.72A53.16,53.16,0,0,1,124.2,85.9ZM45.46,66.07a12.2,12.2,0,0,1,7.31,2.43l-9,9-1.62-1.91A2.75,2.75,0,1,0,38,79.12l3.55,4.2a2.74,2.74,0,0,0,2,1h.11a2.79,2.79,0,0,0,2-.8L56.35,72.7a12.26,12.26,0,1,1-10.89-6.63Zm0,39a12.2,12.2,0,0,1,7.31,2.43l-9,9-1.62-1.92a2.75,2.75,0,0,0-4.2,3.55l3.55,4.2a2.74,2.74,0,0,0,2,1h.11a2.76,2.76,0,0,0,2-.81l10.79-10.79a12.26,12.26,0,1,1-10.89-6.63Zm0,63.55a12.26,12.26,0,1,1,7.31-22.09l-9,9-1.62-1.91a2.75,2.75,0,1,0-4.2,3.55l3.55,4.2a2.74,2.74,0,0,0,2,1h.11a2.79,2.79,0,0,0,2-.8l10.79-10.79a12.24,12.24,0,0,1-10.89,17.89Zm90.4-4.74h-62a2.5,2.5,0,0,1,0-5h62a2.5,2.5,0,0,1,0,5Zm0-12h-62a2.5,2.5,0,0,1,0-5h62a2.5,2.5,0,0,1,0,5Zm0-27h-62a2.5,2.5,0,0,1,0-5h62a2.5,2.5,0,0,1,0,5Zm2.5-14.5a2.49,2.49,0,0,1-2.5,2.5h-62a2.5,2.5,0,0,1,0-5h62A2.49,2.49,0,0,1,138.36,110.4Z" id="id_101"></path><path d="M169.12,6.75a48.74,48.74,0,1,0,48.73,48.74A48.74,48.74,0,0,0,169.12,6.75Zm2.76,55.3a.57.57,0,0,1,0,.13,2.74,2.74,0,0,1-4.44,2l-.09-.07L153,51.92h0l-1.15-1a2.73,2.73,0,0,1-.31-3.87,2.46,2.46,0,0,1,3.63-.32l10.76,9.36V27.43a3,3,0,0,1,6,0Z" id="id_102"></path></g></svg>