<?xml version="1.0" encoding="UTF-8" standalone="no"?> <svg xmlns="http://www.w3.org/2000/svg" viewBox="0 0 32 32"><defs><style>.cls-1{fill:#2e3192;}.cls-2{fill:#3fa9f5;}</style></defs><title>Atm, atm card, atm machine, card, debit card_1</title><g id="_01" data-name="01"><rect class="cls-1" x="15.31" y="14.78" width="4.38" height="14.34"/><path class="cls-2" d="M7,20.78H4a1,1,0,0,1-1-1v-13a1,1,0,0,1,2,0v12H7a1,1,0,0,1,0,2Z"/><path class="cls-1" d="M29,21.78H22a1,1,0,0,1,0-2h6v-13H4v13h6a1,1,0,0,1,0,2H3a1,1,0,0,1-1-1v-15a1,1,0,0,1,1-1H29a1,1,0,0,1,1,1v15A1,1,0,0,1,29,21.78Z"/><path class="cls-2" d="M22,29.78H10a1,1,0,0,1-1-1v-14a1,1,0,0,1,1-1H22a1,1,0,0,1,1,1v14A1,1,0,0,1,22,29.78Zm-11-2H21v-12H11Z"/><path class="cls-1" d="M25,15.78H7a1,1,0,0,1,0-2H25a1,1,0,0,1,0,2Z"/><circle class="cls-1" cx="25" cy="10.78" r="1"/><path class="cls-1" d="M20,11.78H9a1,1,0,0,1,0-2H20a1,1,0,0,1,0,2Z"/><circle class="cls-1" cx="24.78" cy="3" r="0.78"/><circle class="cls-1" cx="10.78" cy="3.78" r="0.4"/></g></svg>