<?xml version="1.0" encoding="UTF-8" standalone="no"?> <svg xmlns="http://www.w3.org/2000/svg" viewBox="0 0 64 64"><g id="flat"><polygon points="32 3 24 11 27 11 27 51 37 51 37 11 40 11 32 3" style="fill:#99d8aa"/><path d="M37,49.571,35,50a3,3,0,0,0-3-3H27v4H37Z" style="fill:#8dc79d"/><polygon points="47 50 41 50 41 16 44 14 47 16 47 50" style="fill:#c0f5f9"/><polygon points="47 47.429 41 48.714 41 50 47 50 47 47.429" style="fill:#b9edf0"/><polygon points="23 48 17 48 17 21 20 19 23 21 23 48" style="fill:#c0f5f9"/><circle cx="32" cy="32" r="10" style="fill:#fbb540"/><path d="M33,27.145V26H31v1.145a2.844,2.844,0,0,0-.422,5.262l1.949.974A.854.854,0,0,1,32.146,35h-.292A.855.855,0,0,1,31,34.146V34H29v.146a2.849,2.849,0,0,0,2,2.709V38h2V36.855a2.844,2.844,0,0,0,.422-5.262l-1.949-.974A.854.854,0,0,1,31.854,29h.292a.855.855,0,0,1,.854.854V30h2v-.146A2.849,2.849,0,0,0,33,27.145Z" style="fill:#d18d28"/><rect x="37" y="31" width="2" height="2" style="fill:#d18d28"/><rect x="25" y="32" width="2" height="2" style="fill:#d18d28"/><path d="M12,48H31l4,3,14-3h.019A2.981,2.981,0,0,1,52,50.981h0a2.982,2.982,0,0,1-1.874,2.769L32,61,12,58H10V48Z" style="fill:#fdc9a6"/><path d="M24,55h9a3,3,0,0,0,2.971-3.422l.015-.789L35,51l-2-1.5L30,49H24Z" style="fill:#f6bb92"/><rect x="50" y="17" width="2" height="2" style="fill:#fbd699"/><rect x="50" y="21" width="2" height="2" style="fill:#fbd699"/><rect x="50" y="25" width="2" height="4" style="fill:#fbd699"/><rect x="12" y="25" width="2" height="2" style="fill:#fbedbf"/><rect x="12" y="29" width="2" height="2" style="fill:#fbedbf"/><rect x="12" y="33" width="2" height="4" style="fill:#fbedbf"/><rect x="12" y="10" width="2" height="2" style="fill:#fbedbf"/><rect x="9" y="13" width="2" height="2" style="fill:#fbedbf"/><rect x="15" y="13" width="2" height="2" style="fill:#fbedbf"/><rect x="12" y="16" width="2" height="2" style="fill:#fbedbf"/><rect x="54" y="5" width="2" height="2" style="fill:#fbd699"/><rect x="52" y="7" width="2" height="2" style="fill:#fbd699"/><rect x="56" y="7" width="2" height="2" style="fill:#fbd699"/><rect x="54" y="9" width="2" height="2" style="fill:#fbd699"/><path d="M23,42.264a6.957,6.957,0,0,0-6-.97V48h6Z" style="fill:#b9edf0"/><rect x="4" y="44" width="8" height="17" style="fill:#4799cf"/><path d="M32,48H25.92a6.991,6.991,0,0,0-13.84,0H12v6H32a3,3,0,0,0,0-6Z" style="fill:#fdc9a6"/></g></svg>