<?xml version="1.0" encoding="UTF-8" standalone="no"?> <svg id="Layer_1" data-name="Layer 1" xmlns="http://www.w3.org/2000/svg" viewBox="0 0 64 64"><circle cx="32" cy="41" r="4" style="fill:#ffdbac"/><path d="M24,62V50a4,4,0,0,1,4-4h8a4,4,0,0,1,4,4V62Z" style="fill:#a1c7f8"/><polygon points="32 46 30 53 32 56 34 53 32 46" style="fill:#e6e6e6"/><circle cx="10" cy="12" r="8" style="fill:#ffd98c"/><circle cx="54" cy="31.5" r="8" style="fill:#95c0f8"/><polygon points="39.192 14.222 43.435 18.464 44.849 12.808 39.192 14.222" style="fill:#7d97b3"/><path d="M23,50V62a1,1,0,0,0,1,1H40a1,1,0,0,0,1-1V50a5.006,5.006,0,0,0-5-5H34.969a5,5,0,1,0-5.938,0H28A5.006,5.006,0,0,0,23,50Zm6-9a3,3,0,1,1,3,3A3,3,0,0,1,29,41Zm3.912,11.83L32,54.2l-.912-1.367L32,49.64ZM30.674,47l-1.635,5.725a1,1,0,0,0,.129.83l2,3a1,1,0,0,0,1.664,0l2-3a1,1,0,0,0,.129-.83L33.326,47H36a3,3,0,0,1,3,3V61H25V50a3,3,0,0,1,3-3Z" style="fill:#404040"/><path d="M57.087,20.144c-.183-.669-.394-1.335-.628-1.982l-1.881.68c.216.6.411,1.212.58,1.83Z" style="fill:#404040"/><path d="M48.26,9.347c.469.432.925.889,1.359,1.357l1.468-1.358c-.469-.507-.964-1-1.472-1.469Z" style="fill:#404040"/><path d="M50.866,12.164c.393.5.773,1.021,1.126,1.553l1.665-1.108c-.384-.576-.794-1.143-1.22-1.683Z" style="fill:#404040"/><path d="M43.763,47.924l.981,1.743c.6-.34,1.2-.708,1.769-1.093L45.4,46.916C44.868,47.272,44.319,47.611,43.763,47.924Z" style="fill:#404040"/><path d="M28.491,1.234c-.684.092-1.373.214-2.048.361l.426,1.954c.623-.136,1.259-.248,1.889-.333Z" style="fill:#404040"/><path d="M52.99,15.355c.309.556.6,1.131.864,1.712l1.82-.828c-.286-.629-.6-1.254-.936-1.856Z" style="fill:#404040"/><path d="M40.78,2.52c-.648-.233-1.316-.442-1.984-.622l-.521,1.931c.616.166,1.232.359,1.83.573Z" style="fill:#404040"/><path d="M34.71,1.14,34.5,3.13c.635.066,1.274.158,1.9.274l.365-1.967C36.091,1.312,35.4,1.212,34.71,1.14Z" style="fill:#404040"/><path d="M24.432,2.119c-.658.2-1.318.43-1.963.684l.734,1.86c.594-.234,1.2-.446,1.81-.631Z" style="fill:#404040"/><path d="M6.09,29.18l1.993-.165C8.031,28.381,8,27.736,8,27.1l-2,.008C6,27.8,6.033,28.494,6.09,29.18Z" style="fill:#404040"/><path d="M48.034,6.53c-.543-.426-1.111-.835-1.687-1.217L45.242,6.98c.532.352,1.056.731,1.557,1.124Z" style="fill:#404040"/><path d="M52.561,42.916,50.98,41.691c-.389.5-.8,1-1.236,1.47l1.479,1.346C51.69,44,52.14,43.459,52.561,42.916Z" style="fill:#404040"/><path d="M18.3,46.711,17.16,48.353c.57.4,1.16.773,1.754,1.119l1.007-1.728C19.373,47.424,18.829,47.077,18.3,46.711Z" style="fill:#404040"/><path d="M46.942,45.782l1.247,1.564c.542-.432,1.071-.889,1.573-1.359L48.4,44.527C47.931,44.96,47.442,45.383,46.942,45.782Z" style="fill:#404040"/><path d="M8.288,23.272l-1.976-.309c-.106.679-.186,1.373-.238,2.065l2,.15C8.116,24.539,8.19,23.9,8.288,23.272Z" style="fill:#404040"/><path d="M42.708,3.3l-.824,1.823c.582.263,1.159.553,1.716.861l.968-1.75C43.964,3.9,43.339,3.586,42.708,3.3Z" style="fill:#404040"/><path d="M32.584,3.007l.058-2L32.49,1c-.641-.013-1.291,0-1.93.033l.109,2C31.259,3,31.86,2.993,32.453,3Z" style="fill:#404040"/><path d="M8.7,32.8c-.153-.617-.283-1.249-.387-1.878l-1.973.324c.112.682.253,1.367.419,2.036Z" style="fill:#404040"/><path d="M16.773,45.552c-.493-.405-.976-.835-1.433-1.276l-1.39,1.438c.5.479,1.019.945,1.554,1.384Z" style="fill:#404040"/><path d="M18.74,4.631l1.022,1.72c.546-.324,1.113-.632,1.687-.913l-.881-1.8C19.947,3.947,19.332,4.28,18.74,4.631Z" style="fill:#404040"/><path d="M14.012,42.888c-.422-.477-.83-.978-1.213-1.487l-1.6,1.2c.414.553.856,1.095,1.314,1.612Z" style="fill:#404040"/><path d="M11.709,39.822c-.341-.538-.664-1.1-.962-1.661l-1.769.933c.322.611.672,1.216,1.041,1.8Z" style="fill:#404040"/><path d="M9.924,36.43c-.25-.584-.48-1.187-.683-1.792l-1.9.637c.22.655.469,1.309.74,1.942Z" style="fill:#404040"/><path d="M10,3a9,9,0,1,0,9,9A9.011,9.011,0,0,0,10,3Zm0,16a7,7,0,1,1,7-7A7.008,7.008,0,0,1,10,19Z" style="fill:#404040"/><path d="M9.5,10h1a.5.5,0,0,1,.5.5h2a2.5,2.5,0,0,0-2-2.449V7H9V8.051A2.5,2.5,0,0,0,9.5,13h1a.5.5,0,0,1,0,1h-1a.5.5,0,0,1-.5-.5H7a2.5,2.5,0,0,0,2,2.449V17h2V15.949A2.5,2.5,0,0,0,10.5,11h-1a.5.5,0,0,1,0-1Z" style="fill:#404040"/><path d="M54,22.5a9,9,0,1,0,9,9A9.011,9.011,0,0,0,54,22.5Zm0,16a7,7,0,1,1,7-7A7.008,7.008,0,0,1,54,38.5Z" style="fill:#404040"/><rect x="50" y="32.5" width="2" height="2" style="fill:#404040"/><rect x="53" y="30.5" width="2" height="4" style="fill:#404040"/><rect x="56" y="28.5" width="2" height="6" style="fill:#404040"/><path d="M15.858,31.9l9.192-9.192L30,27.657a1,1,0,0,0,1.414,0l9.9-9.9,1.414,1.414a1,1,0,0,0,.707.293.976.976,0,0,0,.267-.036,1,1,0,0,0,.7-.721l1.414-5.657a1,1,0,0,0-1.213-1.213L38.95,13.251a1,1,0,0,0-.465,1.678L39.9,16.343l-9.193,9.193-4.95-4.95a1,1,0,0,0-1.414,0l-9.9,9.9ZM43.475,14.182l-.582,2.326-1.745-1.744Z" style="fill:#404040"/></svg>